<svg width="94" height="28" viewBox="0 0 94 28" fill="none" xmlns="http://www.w3.org/2000/svg">
<path d="M34.0508 26.7093C34.0632 26.5205 34.0756 26.2309 34.0756 25.9791V22.5672H34.5716V24.3424H34.584C34.7576 24.0276 35.0801 23.8262 35.5265 23.8262C36.2086 23.8262 36.7046 24.4053 36.6922 25.2615C36.6922 26.2687 36.0722 26.7722 35.4521 26.7722C35.0553 26.7722 34.7328 26.6212 34.522 26.2435H34.5096L34.4848 26.7093H34.0508ZM34.5716 25.5762C34.5716 25.6392 34.584 25.7021 34.5964 25.7651C34.6956 26.1176 34.9809 26.3694 35.3529 26.3694C35.8861 26.3694 36.1962 25.9287 36.1962 25.2866C36.1962 24.7201 35.9109 24.2417 35.3653 24.2417C35.0181 24.2417 34.6956 24.4809 34.5964 24.8712C34.584 24.9341 34.5716 24.9971 34.5716 25.0852V25.5762Z" fill="white"/>
<path d="M37.4735 23.8892L38.0812 25.551C38.1432 25.7399 38.2176 25.9539 38.2548 26.1302H38.2672C38.3168 25.9665 38.3788 25.7399 38.4408 25.5384L38.9865 23.8892H39.5197L38.7632 25.9035C38.4036 26.873 38.1556 27.364 37.8084 27.6661C37.5603 27.8928 37.3123 27.9809 37.1883 27.9935L37.0643 27.5654C37.1883 27.5276 37.3619 27.4395 37.5107 27.3136C37.6471 27.2003 37.8208 26.9989 37.9324 26.7471C37.9572 26.6967 37.9696 26.6589 37.9696 26.6212C37.9696 26.596 37.9572 26.5456 37.9324 26.4827L36.9031 23.8892H37.4735Z" fill="white"/>
<path d="M41.2062 24.6571C41.2062 24.3676 41.2062 24.1284 41.1814 23.8892H41.6278L41.6526 24.3424H41.665C41.8138 24.078 42.0743 23.8262 42.5331 23.8262C42.9175 23.8262 43.2028 24.0528 43.3144 24.3927H43.3268C43.4136 24.2417 43.5252 24.1158 43.6368 24.0276C43.798 23.9017 43.984 23.8262 44.2445 23.8262C44.6165 23.8262 45.1621 24.0654 45.1621 25.0474V26.7093H44.6661V25.1104C44.6661 24.569 44.4677 24.2417 44.0584 24.2417C43.7732 24.2417 43.55 24.4557 43.4632 24.7075C43.4384 24.783 43.426 24.8712 43.426 24.9593V26.6967H42.9299V25.0097C42.9299 24.5564 42.7315 24.2291 42.3471 24.2291C42.0371 24.2291 41.8014 24.4809 41.727 24.7453C41.7022 24.8208 41.6898 24.9089 41.6898 24.9971V26.6967H41.1938V24.6571H41.2062Z" fill="white"/>
<path d="M48.498 25.274C48.498 26.319 47.7911 26.7722 47.1215 26.7722C46.365 26.7722 45.7946 26.2183 45.7946 25.3244C45.7946 24.3802 46.4022 23.8262 47.1711 23.8262C47.9647 23.8262 48.498 24.4179 48.498 25.274ZM46.303 25.3118C46.303 25.9287 46.6502 26.3945 47.1463 26.3945C47.6299 26.3945 47.9895 25.9287 47.9895 25.2992C47.9895 24.8208 47.7539 24.2165 47.1587 24.2165C46.551 24.2165 46.303 24.7704 46.303 25.3118Z" fill="white"/>
<path d="M51.6479 25.274C51.6479 26.319 50.941 26.7722 50.2714 26.7722C49.5149 26.7722 48.9445 26.2183 48.9445 25.3244C48.9445 24.3802 49.5521 23.8262 50.321 23.8262C51.1146 23.8262 51.6479 24.4179 51.6479 25.274ZM49.4405 25.3118C49.4405 25.9287 49.7877 26.3945 50.2838 26.3945C50.7674 26.3945 51.127 25.9287 51.127 25.2992C51.127 24.8208 50.8914 24.2165 50.2962 24.2165C49.7009 24.2165 49.4405 24.7704 49.4405 25.3118Z" fill="white"/>
<path d="M52.2803 24.6571C52.2803 24.3676 52.2803 24.1284 52.2555 23.8892H52.7019L52.7267 24.355H52.7391C52.8755 24.0906 53.198 23.8262 53.6568 23.8262C54.0412 23.8262 54.6365 24.0528 54.6365 25.0222V26.7093H54.1281V25.0852C54.1281 24.632 53.9668 24.2543 53.4832 24.2543C53.1484 24.2543 52.8879 24.4935 52.8011 24.783C52.7763 24.846 52.7639 24.9341 52.7639 25.0222V26.7219H52.2555V24.6571H52.2803Z" fill="white"/>
<path d="M55.4674 22.5798H55.9759V26.7093H55.4674V22.5798Z" fill="white"/>
<path d="M58.3569 26.7093L58.3197 26.3568H58.3073C58.1585 26.5834 57.8484 26.7722 57.464 26.7722C56.9059 26.7722 56.6207 26.3694 56.6207 25.9665C56.6207 25.2866 57.216 24.9089 58.2949 24.9215V24.8586C58.2949 24.632 58.2329 24.2039 57.6624 24.2039C57.402 24.2039 57.1292 24.2794 56.9432 24.4179L56.8315 24.078C57.0548 23.9269 57.3896 23.8262 57.7492 23.8262C58.5925 23.8262 58.8033 24.4179 58.8033 24.9845V26.042C58.8033 26.2812 58.8157 26.5204 58.8529 26.7219H58.3569V26.7093ZM58.2825 25.274C57.7368 25.2615 57.1044 25.3622 57.1044 25.9035C57.1044 26.2309 57.3276 26.3945 57.5756 26.3945C57.9352 26.3945 58.1709 26.1679 58.2453 25.9287C58.2577 25.8784 58.2701 25.8154 58.2701 25.7651V25.274H58.2825Z" fill="white"/>
<path d="M59.721 23.8892L60.3286 25.551C60.3906 25.7399 60.465 25.9539 60.5022 26.1302H60.5146C60.5642 25.9665 60.6262 25.7399 60.6882 25.5384L61.2339 23.8892H61.7671L61.0107 25.9035C60.651 26.873 60.403 27.364 60.0558 27.6661C59.8078 27.8928 59.5597 27.9809 59.4357 27.9935L59.3117 27.5654C59.4357 27.5276 59.6093 27.4395 59.7582 27.3136C59.8946 27.2003 60.0682 26.9989 60.1798 26.7471C60.2046 26.6967 60.217 26.6589 60.217 26.6212C60.217 26.596 60.2046 26.5456 60.1798 26.4827L59.1505 23.8892H59.721Z" fill="white"/>
<path d="M63.0072 23.0708V23.8766H63.6768V24.4179H63.0072V25.6643C63.0072 26.0043 63.094 26.1931 63.3668 26.1931C63.4908 26.1931 63.5776 26.1805 63.6396 26.1553L63.652 26.6967C63.5528 26.7345 63.3668 26.7722 63.1436 26.7722C62.8832 26.7722 62.6724 26.6841 62.5359 26.5456C62.3871 26.3819 62.3127 26.1302 62.3127 25.7525V24.4179H61.9159V23.8766H62.3127V23.2345L63.0072 23.0708Z" fill="white"/>
<path d="M64.6689 25.5007C64.6813 26.0169 65.0782 26.2309 65.5246 26.2309C65.847 26.2309 66.0827 26.1805 66.2935 26.105L66.3927 26.596C66.1571 26.6967 65.8222 26.7722 65.413 26.7722C64.5077 26.7722 63.9745 26.2057 63.9745 25.337C63.9745 24.5564 64.4457 23.8136 65.3386 23.8136C66.2439 23.8136 66.5415 24.569 66.5415 25.1985C66.5415 25.337 66.5291 25.4377 66.5167 25.5007H64.6689ZM65.8967 24.9971C65.8967 24.7327 65.785 24.3046 65.3138 24.3046C64.8798 24.3046 64.6937 24.7075 64.6689 24.9971H65.8967Z" fill="white"/>
<path d="M69.183 26.6212C69.0342 26.6967 68.7366 26.7722 68.3893 26.7722C67.5213 26.7722 66.9508 26.2057 66.9508 25.3244C66.9508 24.4683 67.5213 23.8136 68.5009 23.8136C68.7614 23.8136 69.0218 23.8766 69.183 23.9521L69.059 24.4935C68.9474 24.4431 68.7738 24.3802 68.5257 24.3802C67.9925 24.3802 67.6701 24.783 67.6701 25.2992C67.6701 25.8784 68.0421 26.2183 68.5257 26.2183C68.7738 26.2183 68.9474 26.1679 69.0838 26.105L69.183 26.6212Z" fill="white"/>
<path d="M69.7039 22.5798H70.4107V24.2669H70.4231C70.5099 24.1284 70.6215 24.0276 70.7704 23.9395C70.9068 23.864 71.068 23.8136 71.254 23.8136C71.7252 23.8136 72.2337 24.1284 72.2337 25.0474V26.7219H71.5268V25.1356C71.5268 24.7201 71.378 24.4179 70.9936 24.4179C70.7207 24.4179 70.5223 24.6068 70.4479 24.8208C70.4231 24.8838 70.4231 24.9593 70.4231 25.0348V26.7345H69.7163V22.5798H69.7039Z" fill="white"/>
<path d="M72.9901 24.7201C72.9901 24.3927 72.9901 24.1158 72.9653 23.8766H73.5854L73.6226 24.3046H73.635C73.759 24.078 74.0566 23.8136 74.5279 23.8136C75.0115 23.8136 75.5199 24.1284 75.5199 25.0348V26.7219H74.8131V25.123C74.8131 24.7201 74.6643 24.4053 74.2798 24.4053C73.9946 24.4053 73.8086 24.6068 73.7342 24.8208C73.7094 24.8838 73.7094 24.9719 73.7094 25.0474V26.7093H73.0025V24.7201H72.9901Z" fill="white"/>
<path d="M78.9178 25.274C78.9178 26.319 78.1986 26.7848 77.4793 26.7848C76.6857 26.7848 76.078 26.2309 76.078 25.3244C76.078 24.3927 76.6857 23.8262 77.5289 23.8262C78.3598 23.8136 78.9178 24.4053 78.9178 25.274ZM76.8097 25.2992C76.8097 25.8406 77.0701 26.2561 77.5041 26.2561C77.901 26.2561 78.1862 25.8532 78.1862 25.2866C78.1862 24.846 77.9878 24.3424 77.5041 24.3424C77.0205 24.3424 76.8097 24.8208 76.8097 25.2992Z" fill="white"/>
<path d="M79.5006 22.5798H80.2075V26.7093H79.5006V22.5798Z" fill="white"/>
<path d="M83.6302 25.274C83.6302 26.319 82.911 26.7848 82.1917 26.7848C81.3981 26.7848 80.7904 26.2309 80.7904 25.3244C80.7904 24.3927 81.3981 23.8262 82.2413 23.8262C83.0722 23.8136 83.6302 24.4053 83.6302 25.274ZM81.5221 25.2992C81.5221 25.8406 81.7825 26.2561 82.2165 26.2561C82.6134 26.2561 82.8986 25.8532 82.8986 25.2866C82.8986 24.846 82.7002 24.3424 82.2165 24.3424C81.7205 24.3424 81.5221 24.8208 81.5221 25.2992Z" fill="white"/>
<path d="M86.7553 23.8766C86.7429 24.0654 86.7305 24.3046 86.7305 24.6949V26.3064C86.7305 26.8981 86.6065 27.3262 86.3212 27.5906C86.0236 27.855 85.6268 27.9305 85.2424 27.9305C84.8827 27.9305 84.5107 27.855 84.2627 27.7039L84.4115 27.1625C84.5851 27.2633 84.8827 27.3766 85.23 27.3766C85.6888 27.3766 86.036 27.1374 86.036 26.5204V26.2812H86.0236C85.8624 26.533 85.5772 26.6967 85.2051 26.6967C84.5107 26.6967 84.0146 26.1176 84.0146 25.3118C84.0146 24.3802 84.6099 23.8136 85.2796 23.8136C85.7012 23.8136 85.9616 24.0276 86.0856 24.2543H86.098L86.1228 23.8766H86.7553ZM86.0236 25.0097C86.0236 24.9467 86.0236 24.8712 85.9988 24.8208C85.9244 24.5564 85.726 24.355 85.4284 24.355C85.0315 24.355 84.7463 24.7075 84.7463 25.2866C84.7463 25.7651 84.9819 26.1553 85.4284 26.1553C85.6888 26.1553 85.9244 25.9791 85.9988 25.7273C86.0112 25.6517 86.0236 25.551 86.0236 25.4755V25.0097Z" fill="white"/>
<path d="M88.2187 23.0834C88.2187 23.2974 88.0698 23.4737 87.8218 23.4737C87.5862 23.4737 87.4374 23.31 87.4374 23.0834C87.4374 22.8568 87.5986 22.6931 87.8342 22.6931C88.0574 22.6931 88.2063 22.8694 88.2187 23.0834ZM87.4622 26.7093V23.8766H88.1691V26.7093H87.4622Z" fill="white"/>
<path d="M89.434 25.5007C89.4464 26.0169 89.8432 26.2309 90.2896 26.2309C90.6121 26.2309 90.8477 26.1805 91.0585 26.105L91.1577 26.596C90.9221 26.6967 90.5873 26.7722 90.178 26.7722C89.2727 26.7722 88.7395 26.2057 88.7395 25.337C88.7395 24.5564 89.2107 23.8136 90.1036 23.8136C91.0089 23.8136 91.3065 24.569 91.3065 25.1985C91.3065 25.337 91.2941 25.4377 91.2817 25.5007H89.434ZM90.6617 24.9971C90.6617 24.7327 90.5501 24.3046 90.0788 24.3046C89.6448 24.3046 89.4588 24.7075 89.434 24.9971H90.6617Z" fill="white"/>
<path d="M91.8521 26.0546C92.0133 26.1553 92.3109 26.2561 92.5714 26.2561C92.8814 26.2561 93.0178 26.1302 93.0178 25.9413C93.0178 25.7525 92.9062 25.6517 92.559 25.5258C92.0133 25.337 91.7901 25.0348 91.7901 24.6949C91.7901 24.1913 92.1993 23.801 92.8442 23.801C93.1542 23.801 93.427 23.8766 93.5883 23.9647L93.4518 24.4683C93.3278 24.3928 93.1046 24.3046 92.8566 24.3046C92.6086 24.3046 92.4722 24.4305 92.4722 24.6068C92.4722 24.783 92.6086 24.8712 92.9558 24.9971C93.4642 25.1859 93.6999 25.4503 93.6999 25.8658C93.6999 26.382 93.303 26.7471 92.559 26.7471C92.2241 26.7471 91.9141 26.6715 91.7157 26.5456L91.8521 26.0546Z" fill="white"/>
<path d="M19.0083 14.3963H13.155C13.2542 14.9503 13.527 15.3909 13.9611 15.7183C14.3951 16.0456 14.9283 16.2093 15.5732 16.2093C16.3917 16.2093 17.0737 15.9323 17.5946 15.3909L18.5246 16.4863C18.1898 16.8891 17.7682 17.2039 17.2597 17.4053C16.7513 17.6194 16.1684 17.7201 15.5236 17.7201C14.7051 17.7201 13.9859 17.5564 13.3534 17.2291C12.7334 16.9017 12.2497 16.4359 11.9025 15.8442C11.5677 15.2525 11.394 14.5852 11.394 13.8424C11.394 13.0996 11.5553 12.4449 11.8901 11.8532C12.2249 11.2615 12.6838 10.7956 13.2666 10.4683C13.8495 10.1409 14.5191 9.97728 15.2508 9.97728C15.9824 9.97728 16.6273 10.1409 17.1977 10.4683C17.7682 10.7956 18.2146 11.2489 18.537 11.8406C18.8595 12.4323 19.0207 13.1122 19.0207 13.8927C19.0455 13.9935 19.0331 14.1697 19.0083 14.3963ZM13.8495 11.8784C13.465 12.2183 13.2294 12.6589 13.1426 13.2129H17.3714C17.2969 12.6589 17.0737 12.2183 16.6893 11.8784C16.3049 11.5384 15.8336 11.3622 15.2632 11.3622C14.7051 11.3748 14.2339 11.5384 13.8495 11.8784Z" fill="white"/>
<path d="M32.2154 10.0402L29.4624 17.6068H27.7883L25.8661 12.3946L23.9067 17.6068H22.2326L19.4919 10.0402H21.1413L23.1131 15.6302L25.1716 10.0402H26.635L28.6439 15.6553L30.6653 10.0402H32.2154Z" fill="white"/>
<path d="M34.5096 17.2165C33.902 16.8892 33.4307 16.4233 33.0959 15.8316C32.7611 15.2399 32.5875 14.5726 32.5875 13.8298C32.5875 13.087 32.7611 12.4197 33.0959 11.828C33.4307 11.2363 33.902 10.7831 34.5096 10.4557C35.1173 10.1284 35.7993 9.96471 36.5434 9.96471C37.3123 9.96471 37.9943 10.1284 38.602 10.4557C39.2096 10.7831 39.6809 11.2489 40.0157 11.828C40.3505 12.4197 40.5241 13.087 40.5241 13.8298C40.5241 14.5726 40.3505 15.2399 40.0157 15.8316C39.6809 16.4233 39.1972 16.8892 38.602 17.2165C37.9943 17.5438 37.3123 17.7075 36.5434 17.7075C35.7993 17.7075 35.1173 17.5438 34.5096 17.2165ZM38.1431 15.542C38.5648 15.1014 38.7756 14.5349 38.7756 13.8298C38.7756 13.1248 38.5648 12.5456 38.1431 12.1176C37.7215 11.6769 37.1883 11.4629 36.5558 11.4629C35.9109 11.4629 35.3901 11.6769 34.9685 12.1176C34.5592 12.5582 34.3484 13.1248 34.3484 13.8298C34.3484 14.5349 34.5592 15.114 34.9685 15.542C35.3777 15.9827 35.9109 16.1967 36.5558 16.1967C37.2007 16.1967 37.7339 15.9827 38.1431 15.542Z" fill="white"/>
<path d="M46.5263 9.9521V11.6392C46.3775 11.614 46.241 11.6014 46.117 11.6014C45.435 11.6014 44.9017 11.8028 44.5297 12.2057C44.1453 12.6086 43.9592 13.1877 43.9592 13.9431V17.6194H42.2107V10.0402H43.8724V11.1481C44.3809 10.355 45.2614 9.9521 46.5263 9.9521Z" fill="white"/>
<path d="M51.0526 14.3586L49.7505 15.605V17.6068H48.002V7.09419H49.7505V13.4521L53.3716 10.0528H55.4674L52.3547 13.2129L55.765 17.6068H53.6444L51.0526 14.3586Z" fill="white"/>
<path d="M62.908 10.4431C63.4785 10.7705 63.9249 11.2237 64.2597 11.8028C64.5822 12.3946 64.7434 13.0618 64.7434 13.8298C64.7434 14.5978 64.5822 15.2776 64.2597 15.8694C63.9373 16.4611 63.4785 16.9143 62.908 17.2417C62.3376 17.569 61.6803 17.7201 60.961 17.7201C59.9566 17.7201 59.1629 17.3802 58.5676 16.7003V20.3766H56.8191V10.0528H58.4808V11.0474C58.7661 10.6823 59.1257 10.4179 59.5473 10.2417C59.969 10.0654 60.4402 9.97729 60.9486 9.97729C61.6803 9.95211 62.3252 10.1158 62.908 10.4431ZM62.3376 15.542C62.7468 15.1014 62.9576 14.5348 62.9576 13.8298C62.9576 13.1248 62.7468 12.5456 62.3376 12.1176C61.9283 11.6769 61.3951 11.4629 60.7502 11.4629C60.3286 11.4629 59.9566 11.5636 59.6217 11.7525C59.2869 11.9413 59.0265 12.2183 58.8281 12.5834C58.6296 12.9485 58.5304 13.364 58.5304 13.8298C58.5304 14.3082 58.6296 14.7237 58.8281 15.0762C59.0265 15.4413 59.2869 15.7183 59.6217 15.9071C59.9566 16.096 60.3286 16.1967 60.7502 16.1967C61.3951 16.1967 61.9283 15.9827 62.3376 15.542Z" fill="white"/>
<path d="M66.4052 7.09419H68.1537V17.6194H66.4052V7.09419Z" fill="white"/>
<path d="M75.8051 10.7578C76.388 11.2866 76.6732 12.0924 76.6732 13.1751V17.6194H75.0239V16.7003C74.813 17.0276 74.503 17.2794 74.1062 17.4557C73.7093 17.6319 73.2381 17.7201 72.6801 17.7201C72.122 17.7201 71.6384 17.6194 71.2167 17.4305C70.7951 17.2417 70.4727 16.9647 70.2495 16.6248C70.0262 16.2848 69.9022 15.8945 69.9022 15.4539C69.9022 14.774 70.1502 14.2327 70.6463 13.8172C71.1423 13.4017 71.9236 13.2003 73.0025 13.2003H74.9247V13.087C74.9247 12.5582 74.7634 12.1553 74.4534 11.8658C74.1434 11.5762 73.6721 11.4377 73.0645 11.4377C72.6429 11.4377 72.2336 11.5007 71.8244 11.6391C71.4152 11.7776 71.0803 11.9539 70.7951 12.1931L70.113 10.9089C70.5099 10.6068 70.9687 10.3802 71.5268 10.2165C72.0724 10.0528 72.6553 9.97727 73.2753 9.97727C74.379 9.9521 75.2223 10.2165 75.8051 10.7578ZM74.2178 16.1212C74.5526 15.9197 74.8006 15.6301 74.9371 15.2525V14.3712H73.1389C72.1344 14.3712 71.626 14.7111 71.626 15.3784C71.626 15.7057 71.75 15.9575 71.998 16.1463C72.246 16.3352 72.5933 16.4359 73.0397 16.4359C73.4861 16.4233 73.8706 16.3226 74.2178 16.1212Z" fill="white"/>
<path d="M80.3191 17.2165C79.6991 16.8892 79.2278 16.4233 78.8806 15.8316C78.5334 15.2399 78.3597 14.5726 78.3597 13.8298C78.3597 13.087 78.5334 12.4197 78.8806 11.828C79.2278 11.2363 79.6991 10.7831 80.3067 10.4557C80.9144 10.1284 81.6088 9.96471 82.3901 9.96471C83.1218 9.96471 83.7666 10.1158 84.3247 10.4179C84.8827 10.7201 85.2919 11.1608 85.5772 11.7273L84.2378 12.5205C84.027 12.1679 83.7542 11.9036 83.4318 11.7273C83.1094 11.551 82.7621 11.4629 82.3777 11.4629C81.7204 11.4629 81.1872 11.6769 80.7531 12.105C80.3191 12.5331 80.1083 13.1122 80.1083 13.8298C80.1083 14.5474 80.3191 15.1266 80.7407 15.5546C81.1624 15.9827 81.708 16.1967 82.3653 16.1967C82.7497 16.1967 83.097 16.1086 83.4194 15.9323C83.7418 15.7561 84.0022 15.4917 84.2255 15.1392L85.5648 15.9323C85.2795 16.4989 84.8579 16.9395 84.2999 17.2417C83.7418 17.5438 83.1094 17.7075 82.3777 17.7075C81.6336 17.7075 80.9392 17.5438 80.3191 17.2165Z" fill="white"/>
<path d="M93.9727 14.3963H88.1195C88.2187 14.9503 88.4915 15.3909 88.9255 15.7183C89.3596 16.0456 89.8928 16.2093 90.5377 16.2093C91.3561 16.2093 92.0258 15.9323 92.559 15.3909L93.4891 16.4863C93.1543 16.8891 92.7326 17.2039 92.2242 17.4053C91.7158 17.6194 91.1329 17.7201 90.4881 17.7201C89.6696 17.7201 88.9503 17.5564 88.3179 17.2291C87.6978 16.9017 87.2142 16.4359 86.867 15.8442C86.5321 15.2525 86.3585 14.5852 86.3585 13.8424C86.3585 13.0996 86.5197 12.4449 86.8546 11.8532C87.1894 11.2615 87.6482 10.7956 88.2311 10.4683C88.8139 10.1409 89.4836 9.97728 90.2152 9.97728C90.9469 9.97728 91.5917 10.1409 92.1622 10.4683C92.7326 10.7956 93.1791 11.2489 93.5015 11.8406C93.8239 12.4323 93.9851 13.1122 93.9851 13.8927C93.9975 13.9935 93.9851 14.1697 93.9727 14.3963ZM88.8139 11.8784C88.4295 12.2183 88.1939 12.6589 88.1071 13.2129H92.3358C92.2614 12.6589 92.0382 12.2183 91.6537 11.8784C91.2693 11.5384 90.7981 11.3622 90.2276 11.3622C89.6696 11.3748 89.1984 11.5384 88.8139 11.8784Z" fill="white"/>
<path d="M1.64693 4.40017C5.46645 -1.22753 14.7052 -1.49191 22.2947 3.80844C24.8121 5.57103 26.8335 7.7365 28.272 10.0279C26.9327 7.96312 25.0849 6.02427 22.8155 4.42535C15.6601 -0.57285 6.94218 -0.321052 3.34587 4.9919C-0.250436 10.3048 2.61421 18.652 9.76962 23.6502C16.9126 28.6484 25.6306 28.3966 29.2269 23.0836C30.0081 21.9379 30.4794 20.6538 30.6778 19.2941C30.4918 20.8426 29.9833 22.303 29.1029 23.5872C25.2833 29.2149 16.0445 29.4793 8.4551 24.1789C0.87806 18.8912 -2.1726 10.0279 1.64693 4.40017Z" fill="white"/>
</svg>
